<svg xmlns="http://www.w3.org/2000/svg" data-name="Layer 1" viewBox="0 0 100 125" x="0px" y="0px"><title>Artboard 10</title><path d="M26,46H74a4,4,0,0,0,0-8H26a4,4,0,0,0,0,8Z"/><path d="M74,22H50a4,4,0,0,0,0,8H74a4,4,0,0,0,0-8Z"/><path d="M26,78H74a4,4,0,0,0,0-8H26a4,4,0,0,0,0,8Z"/><path d="M26,62H74a4,4,0,0,0,0-8H26a4,4,0,0,0,0,8Z"/><text x="0" y="115" fill="#000000" font-size="5px" font-weight="bold" font-family="'Helvetica Neue', Helvetica, Arial-Unicode, Arial, Sans-serif">Created by Gregor Cresnar</text><text x="0" y="120" fill="#000000" font-size="5px" font-weight="bold" font-family="'Helvetica Neue', Helvetica, Arial-Unicode, Arial, Sans-serif">from the Noun Project</text></svg>